<?xml version="1.0" encoding="UTF-8"?>
<!--Generator: Apple Native CoreSVG 341-->
<!DOCTYPE svg
PUBLIC "-//W3C//DTD SVG 1.1//EN"
       "http://www.w3.org/Graphics/SVG/1.1/DTD/svg11.dtd">
<svg version="1.1" xmlns="http://www.w3.org/2000/svg" xmlns:xlink="http://www.w3.org/1999/xlink" viewBox="0 0 3300 2200">
 <!--glyph: "", point size: 100.0, font version: "21.1d1e1", template writer version: "138.0.0"-->
 <style>.defaults {-sfsymbols-variable-value-mode:color;-sfsymbols-draw-reverses-motion-groups:true}

.monochrome-0 {-sfsymbols-motion-group:1;-sfsymbols-layer-tags:-2bb3de09b1b07efb 729737620ec7f651 briefcase}
.monochrome-1 {opacity:0.0;-sfsymbols-clear-behind:true;-sfsymbols-motion-group:0;-sfsymbols-layer-tags:729737620ec7f651 _badge clock}
.monochrome-2 {-sfsymbols-motion-group:0;-sfsymbols-always-pulses:true;-sfsymbols-layer-tags:729737620ec7f651 _badge clock}
.monochrome-3 {opacity:0.0;-sfsymbols-clear-behind:true;-sfsymbols-motion-group:0;-sfsymbols-always-pulses:true;-sfsymbols-layer-tags:729737620ec7f651 _badge clock}

.multicolor-0:tintColor {-sfsymbols-motion-group:1;-sfsymbols-layer-tags:-2bb3de09b1b07efb 729737620ec7f651 briefcase}
.multicolor-1:tintColor {opacity:0.0;-sfsymbols-clear-behind:true;-sfsymbols-motion-group:0;-sfsymbols-layer-tags:729737620ec7f651 _badge clock}
.multicolor-2:tintColor {-sfsymbols-motion-group:0;-sfsymbols-always-pulses:true;-sfsymbols-layer-tags:729737620ec7f651 _badge clock}
.multicolor-3:white {-sfsymbols-motion-group:0;-sfsymbols-always-pulses:true;-sfsymbols-layer-tags:729737620ec7f651 _badge clock}

.hierarchical-0:secondary {-sfsymbols-motion-group:1;-sfsymbols-layer-tags:-2bb3de09b1b07efb 729737620ec7f651 briefcase}
.hierarchical-1:primary {opacity:0.0;-sfsymbols-clear-behind:true;-sfsymbols-motion-group:0;-sfsymbols-layer-tags:729737620ec7f651 _badge clock}
.hierarchical-2:primary {-sfsymbols-motion-group:0;-sfsymbols-always-pulses:true;-sfsymbols-layer-tags:729737620ec7f651 _badge clock}
.hierarchical-3:primary {opacity:0.0;-sfsymbols-clear-behind:true;-sfsymbols-motion-group:0;-sfsymbols-always-pulses:true;-sfsymbols-layer-tags:729737620ec7f651 _badge clock}

.SFSymbolsPreviewWireframe {fill:none;opacity:1.0;stroke:black;stroke-width:0.5}
</style>
 <g id="Notes">
  <rect height="2200" id="artboard" style="fill:white;opacity:1" width="3300" x="0" y="0"/>
  <line style="fill:none;stroke:black;opacity:1;stroke-width:0.5;" x1="263" x2="3036" y1="292" y2="292"/>
  <text style="stroke:none;fill:black;font-family:sans-serif;font-size:13;font-weight:bold;" transform="matrix(1 0 0 1 263 322)">Weight/Scale Variations</text>
  <text style="stroke:none;fill:black;font-family:sans-serif;font-size:13;text-anchor:middle;" transform="matrix(1 0 0 1 559.711 322)">Ultralight</text>
  <text style="stroke:none;fill:black;font-family:sans-serif;font-size:13;text-anchor:middle;" transform="matrix(1 0 0 1 856.422 322)">Thin</text>
  <text style="stroke:none;fill:black;font-family:sans-serif;font-size:13;text-anchor:middle;" transform="matrix(1 0 0 1 1153.13 322)">Light</text>
  <text style="stroke:none;fill:black;font-family:sans-serif;font-size:13;text-anchor:middle;" transform="matrix(1 0 0 1 1449.84 322)">Regular</text>
  <text style="stroke:none;fill:black;font-family:sans-serif;font-size:13;text-anchor:middle;" transform="matrix(1 0 0 1 1746.56 322)">Medium</text>
  <text style="stroke:none;fill:black;font-family:sans-serif;font-size:13;text-anchor:middle;" transform="matrix(1 0 0 1 2043.27 322)">Semibold</text>
  <text style="stroke:none;fill:black;font-family:sans-serif;font-size:13;text-anchor:middle;" transform="matrix(1 0 0 1 2339.98 322)">Bold</text>
  <text style="stroke:none;fill:black;font-family:sans-serif;font-size:13;text-anchor:middle;" transform="matrix(1 0 0 1 2636.69 322)">Heavy</text>
  <text style="stroke:none;fill:black;font-family:sans-serif;font-size:13;text-anchor:middle;" transform="matrix(1 0 0 1 2933.4 322)">Black</text>
  <line style="fill:none;stroke:black;opacity:1;stroke-width:0.5;" x1="263" x2="3036" y1="1903" y2="1903"/>
  <g transform="matrix(0.2 0 0 0.2 263 1933)">
   <path d="m46.2402 4.15039c21.7773 0 39.4531-17.627 39.4531-39.4043s-17.6758-39.4043-39.4531-39.4043c-21.7285 0-39.4043 17.627-39.4043 39.4043s17.6758 39.4043 39.4043 39.4043Zm0-7.42188c-17.6758 0-31.9336-14.3066-31.9336-31.9824s14.2578-31.9824 31.9336-31.9824 31.9824 14.3066 31.9824 31.9824-14.3066 31.9824-31.9824 31.9824Zm3.61328-17.7734v-28.4668c0-2.24609-1.46484-3.75977-3.71094-3.75977-2.14844 0-3.61328 1.51367-3.61328 3.75977v28.4668c0 2.19727 1.46484 3.71094 3.61328 3.71094 2.24609 0 3.71094-1.51367 3.71094-3.71094Zm-17.8223-10.5957h28.418c2.19727 0 3.71094-1.46484 3.71094-3.61328 0-2.19727-1.51367-3.71094-3.71094-3.71094h-28.418c-2.24609 0-3.75977 1.51367-3.75977 3.71094 0 2.14844 1.51367 3.61328 3.75977 3.61328Z"/>
  </g>
  <g transform="matrix(0.2 0 0 0.2 281.506 1933)">
   <path d="m58.5449 14.5508c27.4902 0 49.8047-22.3145 49.8047-49.8047s-22.3145-49.8047-49.8047-49.8047-49.8047 22.3145-49.8047 49.8047 22.3145 49.8047 49.8047 49.8047Zm0-8.30078c-22.9492 0-41.5039-18.5547-41.5039-41.5039s18.5547-41.5039 41.5039-41.5039 41.5039 18.5547 41.5039 41.5039-18.5547 41.5039-41.5039 41.5039Zm4.05273-23.0957v-36.9141c0-2.49023-1.70898-4.19922-4.15039-4.19922-2.39258 0-4.05273 1.70898-4.05273 4.19922v36.9141c0 2.44141 1.66016 4.15039 4.05273 4.15039 2.44141 0 4.15039-1.66016 4.15039-4.15039Zm-22.5586-14.4043h36.9629c2.44141 0 4.15039-1.61133 4.15039-4.00391 0-2.44141-1.70898-4.15039-4.15039-4.15039h-36.9629c-2.49023 0-4.15039 1.70898-4.15039 4.15039 0 2.39258 1.66016 4.00391 4.15039 4.00391Z"/>
  </g>
  <g transform="matrix(0.2 0 0 0.2 304.924 1933)">
   <path d="m74.8535 28.3203c35.1074 0 63.623-28.4668 63.623-63.5742s-28.5156-63.623-63.623-63.623-63.5742 28.5156-63.5742 63.623 28.4668 63.5742 63.5742 63.5742Zm0-9.08203c-30.127 0-54.4922-24.3652-54.4922-54.4922s24.3652-54.4922 54.4922-54.4922 54.4922 24.3652 54.4922 54.4922-24.3652 54.4922-54.4922 54.4922Zm4.44336-30.3223v-48.4863c0-2.73438-1.85547-4.63867-4.54102-4.63867-2.58789 0-4.44336 1.9043-4.44336 4.63867v48.4863c0 2.68555 1.85547 4.58984 4.44336 4.58984 2.68555 0 4.54102-1.85547 4.54102-4.58984Zm-28.7109-19.7754h48.4863c2.68555 0 4.58984-1.80664 4.58984-4.39453 0-2.73438-1.85547-4.58984-4.58984-4.58984h-48.4863c-2.73438 0-4.58984 1.85547-4.58984 4.58984 0 2.58789 1.85547 4.39453 4.58984 4.39453Z"/>
  </g>
  <text style="stroke:none;fill:black;font-family:sans-serif;font-size:13;font-weight:bold;" transform="matrix(1 0 0 1 263 1953)">Design Variations</text>
  <text style="stroke:none;fill:black;font-family:sans-serif;font-size:13;" transform="matrix(1 0 0 1 263 1971)">Symbols are supported in up to nine weights and three scales.</text>
  <text style="stroke:none;fill:black;font-family:sans-serif;font-size:13;" transform="matrix(1 0 0 1 263 1989)">For optimal layout with text and other symbols, vertically align</text>
  <text style="stroke:none;fill:black;font-family:sans-serif;font-size:13;" transform="matrix(1 0 0 1 263 2007)">symbols with the adjacent text.</text>
  <line style="fill:none;stroke:#00AEEF;stroke-width:0.5;opacity:1.0;" x1="776" x2="776" y1="1919" y2="1933"/>
  <g transform="matrix(0.2 0 0 0.2 776 1933)">
   <path d="m16.5527 0.78125c2.58789 0 3.85742-0.976562 4.78516-3.71094l20.5566-57.5195h0.244141l20.6055 57.5195c0.927734 2.73438 2.19727 3.71094 4.73633 3.71094 2.58789 0 4.24805-1.5625 4.24805-4.00391 0-0.830078-0.146484-1.61133-0.537109-2.63672l-22.9004-60.9863c-1.12305-2.97852-3.125-4.49219-6.25-4.49219-3.02734 0-5.07812 1.46484-6.15234 4.44336l-22.9004 61.084c-0.390625 1.02539-0.537109 1.80664-0.537109 2.63672 0 2.44141 1.5625 3.95508 4.10156 3.95508Zm10.2051-20.9473h30.6641c2.00195 0 3.66211-1.66016 3.66211-3.66211 0-2.05078-1.66016-3.66211-3.66211-3.66211h-30.6641c-2.00195 0-3.66211 1.61133-3.66211 3.66211 0 2.00195 1.66016 3.66211 3.66211 3.66211Z"/>
  </g>
  <line style="fill:none;stroke:#00AEEF;stroke-width:0.5;opacity:1.0;" x1="792.836" x2="792.836" y1="1919" y2="1933"/>
  <text style="stroke:none;fill:black;font-family:sans-serif;font-size:13;font-weight:bold;" transform="matrix(1 0 0 1 776 1953)">Margins</text>
  <text style="stroke:none;fill:black;font-family:sans-serif;font-size:13;" transform="matrix(1 0 0 1 776 1971)">Leading and trailing margins on the left and right side of each symbol</text>
  <text style="stroke:none;fill:black;font-family:sans-serif;font-size:13;" transform="matrix(1 0 0 1 776 1989)">can be adjusted by modifying the x-location of the margin guidelines.</text>
  <text style="stroke:none;fill:black;font-family:sans-serif;font-size:13;" transform="matrix(1 0 0 1 776 2007)">Modifications are automatically applied proportionally to all</text>
  <text style="stroke:none;fill:black;font-family:sans-serif;font-size:13;" transform="matrix(1 0 0 1 776 2025)">scales and weights.</text>
  <g transform="matrix(0.2 0 0 0.2 1289 1933)">
   <path d="m14.209 13.1348 7.86133 7.86133c4.29688 4.39453 9.32617 4.10156 13.8672-1.02539l60.6934-68.2129-4.88281-4.88281-60.2539 67.6758c-1.80664 1.95312-3.4668 2.44141-5.81055 0.0976562l-5.17578-5.12695c-2.29492-2.29492-1.80664-3.95508 0.195312-5.81055l67.4805-62.1582-4.88281-4.83398-68.0664 62.5977c-4.98047 4.58984-5.32227 9.47266-1.02539 13.8184Zm44.873-97.4609c-2.05078 2.00195-2.24609 4.88281-1.07422 6.78711 1.12305 1.80664 3.4668 3.02734 6.5918 2.24609 5.85938-1.66016 12.5977-2.39258 18.8965 0.927734l-2.68555 7.12891c-1.61133 4.00391-0.732422 6.88477 1.70898 9.42383l10.2539 10.3027c2.34375 2.39258 4.54102 2.44141 7.08008 1.95312l4.44336-0.732422 2.58789 2.53906-0.195312 2.24609c-0.0976562 2.29492 0.537109 4.29688 2.7832 6.49414l3.36914 3.32031c2.29492 2.29492 5.51758 2.49023 7.8125 0.195312l12.9883-13.0371c2.29492-2.34375 2.14844-5.37109-0.195312-7.66602l-3.41797-3.41797c-2.19727-2.19727-4.05273-3.02734-6.34766-2.88086l-2.34375 0.244141-2.44141-2.44141 1.02539-4.6875c0.634766-2.73438-0.244141-4.98047-2.88086-7.61719l-11.2793-11.1816c-12.9395-12.8418-35.5957-11.0352-46.6797-0.146484Zm7.08008 2.05078c8.78906-6.39648 25.9766-5.66406 33.6914 1.95312l12.3047 12.207c1.02539 1.02539 1.2207 1.80664 0.927734 3.32031l-1.46484 6.64062 6.73828 6.68945 4.39453-0.244141c1.12305-0.0488281 1.51367 0.0488281 2.34375 0.878906l2.53906 2.49023-10.8398 10.8398-2.49023-2.49023c-0.830078-0.878906-0.976562-1.2207-0.927734-2.39258l0.292969-4.3457-6.68945-6.73828-6.83594 1.17188c-1.41602 0.292969-2.05078 0.195312-3.17383-0.878906l-8.93555-8.88672c-1.07422-1.02539-1.17188-1.70898-0.488281-3.36914l4.58984-11.4746c-6.10352-6.34766-17.041-7.51953-25.5859-4.58984-0.683594 0.244141-0.927734-0.390625-0.390625-0.78125Z"/>
  </g>
  <text style="stroke:none;fill:black;font-family:sans-serif;font-size:13;font-weight:bold;" transform="matrix(1 0 0 1 1289 1953)">Exporting</text>
  <text style="stroke:none;fill:black;font-family:sans-serif;font-size:13;" transform="matrix(1 0 0 1 1289 1971)">Symbols should be outlined when exporting to ensure the</text>
  <text style="stroke:none;fill:black;font-family:sans-serif;font-size:13;" transform="matrix(1 0 0 1 1289 1989)">design is preserved when submitting to Xcode.</text>
  <text id="template-version" style="stroke:none;fill:black;font-family:sans-serif;font-size:13;text-anchor:end;" transform="matrix(1 0 0 1 3036 1933)">Template v.7.0</text>
  <text style="stroke:none;fill:black;font-family:sans-serif;font-size:13;text-anchor:end;" transform="matrix(1 0 0 1 3036 1951)">Requires Xcode 26 or greater</text>
  <text id="descriptive-name" style="stroke:none;fill:black;font-family:sans-serif;font-size:13;text-anchor:end;" transform="matrix(1 0 0 1 3036 1969)">Generated from </text>
  <text style="stroke:none;fill:black;font-family:sans-serif;font-size:13;text-anchor:end;" transform="matrix(1 0 0 1 3036 1987)">Typeset at 100.0 points</text>
  <text style="stroke:none;fill:black;font-family:sans-serif;font-size:13;" transform="matrix(1 0 0 1 263 726)">Small</text>
  <text style="stroke:none;fill:black;font-family:sans-serif;font-size:13;" transform="matrix(1 0 0 1 263 1156)">Medium</text>
  <text style="stroke:none;fill:black;font-family:sans-serif;font-size:13;" transform="matrix(1 0 0 1 263 1586)">Large</text>
 </g>
 <g id="Guides">
  <g id="H-reference" style="fill:#27AAE1;stroke:none;" transform="matrix(1 0 0 1 339 696)">
   <path d="M0.993654 0L3.63775 0L29.3281-67.1323L30.0303-67.1323L30.0303-70.459L28.1226-70.459ZM11.6885-24.4799L46.9815-24.4799L46.2315-26.7285L12.4385-26.7285ZM55.1196 0L57.7637 0L30.6382-70.459L29.4326-70.459L29.4326-67.1323Z"/>
  </g>
  <line id="Baseline-S" style="fill:none;stroke:#27AAE1;opacity:1;stroke-width:0.5;" x1="263" x2="3036" y1="696" y2="696"/>
  <line id="Capline-S" style="fill:none;stroke:#27AAE1;opacity:1;stroke-width:0.5;" x1="263" x2="3036" y1="625.541" y2="625.541"/>
  <g id="H-reference" style="fill:#27AAE1;stroke:none;" transform="matrix(1 0 0 1 339 1126)">
   <path d="M0.993654 0L3.63775 0L29.3281-67.1323L30.0303-67.1323L30.0303-70.459L28.1226-70.459ZM11.6885-24.4799L46.9815-24.4799L46.2315-26.7285L12.4385-26.7285ZM55.1196 0L57.7637 0L30.6382-70.459L29.4326-70.459L29.4326-67.1323Z"/>
  </g>
  <line id="Baseline-M" style="fill:none;stroke:#27AAE1;opacity:1;stroke-width:0.5;" x1="263" x2="3036" y1="1126" y2="1126"/>
  <line id="Capline-M" style="fill:none;stroke:#27AAE1;opacity:1;stroke-width:0.5;" x1="263" x2="3036" y1="1055.54" y2="1055.54"/>
  <g id="H-reference" style="fill:#27AAE1;stroke:none;" transform="matrix(1 0 0 1 339 1556)">
   <path d="M0.993654 0L3.63775 0L29.3281-67.1323L30.0303-67.1323L30.0303-70.459L28.1226-70.459ZM11.6885-24.4799L46.9815-24.4799L46.2315-26.7285L12.4385-26.7285ZM55.1196 0L57.7637 0L30.6382-70.459L29.4326-70.459L29.4326-67.1323Z"/>
  </g>
  <line id="Baseline-L" style="fill:none;stroke:#27AAE1;opacity:1;stroke-width:0.5;" x1="263" x2="3036" y1="1556" y2="1556"/>
  <line id="Capline-L" style="fill:none;stroke:#27AAE1;opacity:1;stroke-width:0.5;" x1="263" x2="3036" y1="1485.54" y2="1485.54"/>
  <line id="right-margin-Black-S" style="fill:none;stroke:#FF3B30;stroke-width:0.5;opacity:1.0;" x1="2993.07" x2="2993.07" y1="600.785" y2="720.121"/>
  <line id="left-margin-Black-S" style="fill:none;stroke:#00AEEF;stroke-width:0.5;opacity:1.0;" x1="2873.73" x2="2873.73" y1="600.785" y2="720.121"/>
  <line id="right-margin-Regular-S" style="fill:none;stroke:#FF3B30;stroke-width:0.5;opacity:1.0;" x1="1504.46" x2="1504.46" y1="600.785" y2="720.121"/>
  <line id="left-margin-Regular-S" style="fill:none;stroke:#00AEEF;stroke-width:0.5;opacity:1.0;" x1="1395.23" x2="1395.23" y1="600.785" y2="720.121"/>
  <line id="right-margin-Ultralight-S" style="fill:none;stroke:#FF3B30;stroke-width:0.5;opacity:1.0;" x1="611.238" x2="611.238" y1="600.785" y2="720.121"/>
  <line id="left-margin-Ultralight-S" style="fill:none;stroke:#00AEEF;stroke-width:0.5;opacity:1.0;" x1="508.185" x2="508.185" y1="600.785" y2="720.121"/>
 </g>
 <g id="Symbols">
  <g id="Black-S" transform="matrix(1 0 0 1 2873.73 696)">
   <path class="monochrome-0 multicolor-0:tintColor hierarchical-0:secondary SFSymbolsPreviewWireframe" d="M17.6758-31.4453C29.8828-26.9531 44.3848-24.6094 59.668-24.6094C74.9512-24.6094 89.4531-26.9531 101.66-31.4453L101.66-43.7012C90.625-38.4766 76.2207-35.7422 59.668-35.7422C43.1152-35.7422 28.7109-38.4766 17.6758-43.7012ZM53.6133-16.5039L65.7227-16.5039C69.9707-16.5039 72.2168-18.5547 72.2168-22.4609L72.2168-32.373L47.1191-32.373L47.1191-22.4609C47.1191-18.5547 49.3652-16.5039 53.6133-16.5039ZM24.8047 7.66602L94.5312 7.66602C104.053 7.66602 109.57 2.14844 109.57-7.37305L109.57-45.9961C109.57-55.5176 104.053-61.0352 94.5312-61.0352L24.8047-61.0352C15.2832-61.0352 9.76562-55.5176 9.76562-45.9961L9.76562-7.37305C9.76562 2.14844 15.2832 7.66602 24.8047 7.66602ZM26.123-5.0293C24.707-5.0293 23.9258-5.81055 23.9258-7.22656L23.9258-46.0938C23.9258-47.5098 24.707-48.3398 26.123-48.3398L93.2129-48.3398C94.6289-48.3398 95.4102-47.5098 95.4102-46.0938L95.4102-7.22656C95.4102-5.81055 94.6289-5.0293 93.2129-5.0293ZM36.4746-58.9844L48.3887-58.9844L48.3887-64.7949C48.3887-66.748 49.3652-67.7246 51.3184-67.7246L68.0176-67.7246C69.9707-67.7246 70.9473-66.6992 70.9473-64.7949L70.9473-58.9844L82.8613-58.9844L82.8613-66.9434C82.8613-74.3164 78.3691-78.1738 69.8242-78.1738L49.4141-78.1738C40.8691-78.1738 36.4746-74.3164 36.4746-66.9434Z"/>
   <path class="monochrome-1 multicolor-1:tintColor hierarchical-1:primary SFSymbolsPreviewWireframe" d="M107.406 20.2491C122.348 20.2491 134.701 7.84665 134.701-7.09475C134.701-22.0361 122.348-34.3408 107.406-34.3408C92.4648-34.3408 80.1113-22.0361 80.1113-7.09475C80.1113 7.84665 92.4648 20.2491 107.406 20.2491Z"/>
   <path class="monochrome-2 multicolor-2:tintColor hierarchical-2:primary SFSymbolsPreviewWireframe" d="M107.406 13.9014C118.881 13.9014 128.354 4.33105 128.354-7.09475C128.354-18.5205 118.881-27.9931 107.406-27.9931C95.9315-27.9931 86.4589-18.5205 86.4589-7.09475C86.4589 4.33105 95.9315 13.9014 107.406 13.9014Z"/>
   <path class="monochrome-3 multicolor-3:white hierarchical-3:primary SFSymbolsPreviewWireframe" d="M98.1289-2.50485C95.7851-2.50485 93.9785-4.31155 93.9785-6.65525C93.9785-8.99905 95.7851-10.8056 98.1289-10.8056L103.647-10.8056L103.647-16.9091C103.647-19.2529 105.453-21.0595 107.797-21.0595C110.141-21.0595 111.947-19.2529 111.947-16.9091L111.947-6.65525C111.947-4.31155 110.141-2.50485 107.797-2.50485L98.1289-2.50485Z"/>
  </g>
  <g id="Regular-S" transform="matrix(1 0 0 1 1395.23 696)">
   <path class="monochrome-0 multicolor-0:tintColor hierarchical-0:secondary SFSymbolsPreviewWireframe" d="M14.6484-36.3281C26.416-32.1777 40.1367-30.0293 54.5898-30.0293C69.0918-30.0293 82.7637-32.1777 94.5801-36.3281L94.5801-43.75C82.9102-39.1602 69.2871-36.8164 54.5898-36.8164C39.9414-36.8164 26.3184-39.1602 14.6484-43.75ZM48.584-22.9492L60.6445-22.9492C63.4277-22.9492 65.0391-24.5117 65.0391-27.2949L65.0391-33.5938L44.1895-33.5938L44.1895-27.2949C44.1895-24.5117 45.8008-22.9492 48.584-22.9492ZM22.168 2.19727L87.0117 2.19727C95.3613 2.19727 99.4629-1.80664 99.4629-10.0098L99.4629-46.9238C99.4629-55.127 95.3613-59.1309 87.0117-59.1309L22.168-59.1309C13.916-59.1309 9.76562-55.127 9.76562-46.9238L9.76562-10.0098C9.76562-1.80664 13.916 2.19727 22.168 2.19727ZM22.2656-4.83398C18.75-4.83398 16.7969-6.68945 16.7969-10.3516L16.7969-46.5332C16.7969-50.2441 18.75-52.0996 22.2656-52.0996L86.9629-52.0996C90.4297-52.0996 92.3828-50.2441 92.3828-46.5332L92.3828-10.3516C92.3828-6.68945 90.4297-4.83398 86.9629-4.83398ZM34.8633-55.3711L41.6016-55.3711L41.6016-61.9141C41.6016-64.7461 43.2617-66.3574 46.0938-66.3574L63.0859-66.3574C65.9668-66.3574 67.5781-64.7461 67.5781-61.9141L67.5781-55.4688L74.3652-55.4688L74.3652-61.377C74.3652-69.1895 70.3613-72.7051 62.9883-72.7051L46.1914-72.7051C39.3066-72.7051 34.8633-69.1895 34.8633-61.377Z"/>
   <path class="monochrome-1 multicolor-1:tintColor hierarchical-1:primary SFSymbolsPreviewWireframe" d="M98.2828 18.3448C112.15 18.3448 123.722 6.77245 123.722-7.04585C123.722-20.9618 112.248-32.4365 98.2828-32.4365C84.3668-32.4365 72.8922-20.9618 72.8922-7.04585C72.8922 6.91895 84.318 18.3448 98.2828 18.3448Z"/>
   <path class="monochrome-2 multicolor-2:tintColor hierarchical-2:primary SFSymbolsPreviewWireframe" d="M98.2828 12.6319C108.976 12.6319 118.01 3.69635 118.01-7.04585C118.01-17.8368 109.123-26.7236 98.2828-26.7236C87.4918-26.7236 78.6051-17.8368 78.6051-7.04585C78.6051 3.79395 87.4918 12.6319 98.2828 12.6319Z"/>
   <path class="monochrome-3 multicolor-3:white hierarchical-3:primary SFSymbolsPreviewWireframe" d="M89.3473-4.01855C87.8824-4.01855 86.7594-5.14155 86.7594-6.50875C86.7594-7.92475 87.9313-9.04785 89.3473-9.04785L95.9878-9.04785L95.9878-18.1786C95.9878-19.5458 97.1108-20.6689 98.5268-20.6689C99.9428-20.6689 101.066-19.5458 101.066-18.1786L101.066-6.50875C101.066-5.09275 99.9918-4.01855 98.5268-4.01855L89.3473-4.01855Z"/>
  </g>
  <g id="Ultralight-S" transform="matrix(1 0 0 1 508.185 696)">
   <path class="monochrome-0 multicolor-0:tintColor hierarchical-0:secondary SFSymbolsPreviewWireframe" d="M11.1065-38.5986C24.2818-33.9033 37.503-32.0727 51.5474-32.0727C65.5498-32.0727 78.7676-33.9033 91.9463-38.5986L91.7647-40.8438C79.5498-36.1631 66.5625-34.2735 51.5474-34.2735C36.4903-34.2735 23.503-36.1631 11.2881-41.0708ZM45.9502-25.8554L57.1026-25.8554C59.3409-25.8554 60.6343-27.1455 60.6343-29.3384L60.6343-33.4121L42.4185-33.4121L42.4185-29.3384C42.4185-27.1455 43.7119-25.8554 45.9502-25.8554ZM18.9893 0.108415L84.0601 0.108415C90.23 0.108415 93.2872-2.89648 93.2872-9.10157L93.2872-47.7412C93.2872-53.9463 90.23-56.9512 84.0601-56.9512L18.9893-56.9512C12.8262-56.9512 9.76562-53.9463 9.76562-47.7412L9.76562-9.10157C9.76562-2.89648 12.8262 0.108415 18.9893 0.108415ZM18.9961-2.01858C14.1182-2.01858 11.9834-4.19191 11.9834-9.08009L11.9834-47.7593C11.9834-52.6509 14.1182-54.8242 18.9961-54.8242L84.0567-54.8242C88.9312-54.8242 91.0659-52.6509 91.0659-47.7593L91.0659-9.08009C91.0659-4.19191 88.9312-2.01858 84.0567-2.01858ZM33.728-55.5527L35.9253-55.5527L35.9253-63.458C35.9253-66.6079 37.9488-68.4463 41.4165-68.4463L61.5874-68.4463C65.104-68.4463 67.124-66.6079 67.124-63.458L67.124-55.5596L69.3247-55.5596L69.3247-63.4204C69.3247-67.9634 66.4107-70.6162 61.4898-70.6162L41.5142-70.6162C36.6729-70.6162 33.728-67.9634 33.728-63.4204Z"/>
   <path class="monochrome-1 multicolor-1:tintColor hierarchical-1:primary SFSymbolsPreviewWireframe" d="M92.7459 14.3033C104.434 14.3033 114.099 4.68365 114.099-7.04585C114.099-18.7822 104.486-28.395 92.7459-28.395C81.055-28.395 71.3967-18.7368 71.3967-7.04585C71.3967 4.69385 81.0515 14.3033 92.7459 14.3033Z"/>
   <path class="monochrome-2 multicolor-2:tintColor hierarchical-2:primary SFSymbolsPreviewWireframe" d="M92.7459 11.2242C102.713 11.2242 111.02 3.01515 111.02-7.04585C111.02-17.1103 102.769-25.3159 92.7459-25.3159C82.7268-25.3159 74.4304-17.0649 74.4304-7.04585C74.4304 3.02205 82.7268 11.2242 92.7459 11.2242Z"/>
   <path class="monochrome-3 multicolor-3:white hierarchical-3:primary SFSymbolsPreviewWireframe" d="M83.1745-4.42725C82.3455-4.42725 81.6765-5.09615 81.6765-6.00925C81.6765-6.78955 82.3489-7.45845 83.1745-7.45845L91.3138-7.45845L91.3138-19.0868C91.3138-19.9091 91.9827-20.5781 92.8084-20.5781C93.6795-20.5781 94.3484-19.9091 94.3484-19.0868L94.3484-6.00925C94.3484-5.13815 93.6374-4.42725 92.8084-4.42725L83.1745-4.42725Z"/>
  </g>
 </g>
</svg>
